<svg xmlns="http://www.w3.org/2000/svg" viewBox="-0.5 -0.5 181 61"><svg xmlns="http://www.w3.org/2000/svg" overflow="visible"><rect stroke="grey" stroke-width="1" x="0" y="0.0" width="20" height="20" fill="blue" data-x="0" data-y="0" data-symbol="1"/><rect stroke="grey" stroke-width="1" x="20" y="0.0" width="20" height="20" fill="red" data-x="1" data-y="0" data-symbol="2"/><rect stroke="grey" stroke-width="1" x="40" y="0.0" width="20" height="20" fill="green" data-x="2" data-y="0" data-symbol="3"/><rect stroke="grey" stroke-width="1" x="0" y="20.0" width="20" height="20" fill="yellow" data-x="0" data-y="1" data-symbol="4"/><rect stroke="grey" stroke-width="1" x="20" y="20.0" width="20" height="20" fill="darkGrey" data-x="1" data-y="1" data-symbol="5"/><rect stroke="grey" stroke-width="1" x="40" y="20.0" width="20" height="20" fill="magenta" data-x="2" data-y="1" data-symbol="6"/><rect stroke="grey" stroke-width="1" x="0" y="40.0" width="20" height="20" fill="orange" data-x="0" data-y="2" data-symbol="7"/><rect stroke="grey" stroke-width="1" x="20" y="40.0" width="20" height="20" fill="cyan" data-x="1" data-y="2" data-symbol="8"/><rect stroke="grey" stroke-width="1" x="40" y="40.0" width="20" height="20" fill="brown" data-x="2" data-y="2" data-symbol="9"/><desc>[[1, 2, 3], [4, 5, 6], [7, 8, 9]]</desc><title content="Grid"/></svg><line stroke="grey" stroke-width="3" x1="80" y1="30.0" x2="100" y2="30.0"/><line stroke="grey" stroke-width="3" x1="101.0" y1="31.0" x2="94.0" y2="24.0"/><line stroke="grey" stroke-width="3" x1="101.0" y1="29.0" x2="94.0" y2="36.0"/><svg xmlns="http://www.w3.org/2000/svg" overflow="visible"><rect stroke="grey" stroke-width="1" x="120" y="0.0" width="20" height="20" fill="black" data-x="0" data-y="0" data-symbol="0"/><rect stroke="grey" stroke-width="1" x="140" y="0.0" width="20" height="20" fill="red" data-x="1" data-y="0" data-symbol="2"/><rect stroke="grey" stroke-width="1" x="160" y="0.0" width="20" height="20" fill="green" data-x="2" data-y="0" data-symbol="3"/><rect stroke="grey" stroke-width="1" x="120" y="20.0" width="20" height="20" fill="yellow" data-x="0" data-y="1" data-symbol="4"/><rect stroke="grey" stroke-width="1" x="140" y="20.0" width="20" height="20" fill="darkGrey" data-x="1" data-y="1" data-symbol="5"/><rect stroke="grey" stroke-width="1" x="160" y="20.0" width="20" height="20" fill="magenta" data-x="2" data-y="1" data-symbol="6"/><rect stroke="grey" stroke-width="1" x="120" y="40.0" width="20" height="20" fill="orange" data-x="0" data-y="2" data-symbol="7"/><rect stroke="grey" stroke-width="1" x="140" y="40.0" width="20" height="20" fill="cyan" data-x="1" data-y="2" data-symbol="8"/><rect stroke="grey" stroke-width="1" x="160" y="40.0" width="20" height="20" fill="brown" data-x="2" data-y="2" data-symbol="9"/><desc>[[0, 2, 3], [4, 5, 6], [7, 8, 9]]</desc><title content="Grid"/></svg><desc>{"input": [[1, 2, 3], [4, 5, 6], [7, 8, 9]], "output": [[0, 2, 3], [4, 5, 6], [7, 8, 9]]}</desc><title content="Pair"/></svg>