<svg xmlns="http://www.w3.org/2000/svg" viewBox="-0.5 -0.5 201 300"><text stroke="grey" dominant-baseline="central" text-anchor="middle" font-size="20" fill="grey" x="100.0" y="30.0">Task - 38100990</text><svg xmlns="http://www.w3.org/2000/svg" overflow="visible"><svg xmlns="http://www.w3.org/2000/svg" overflow="visible"><rect stroke="grey" stroke-width="1" x="10.0" y="60.0" width="20" height="20" fill="blue" data-x="0" data-y="0" data-symbol="1"/><rect stroke="grey" stroke-width="1" x="30.0" y="60.0" width="20" height="20" fill="red" data-x="1" data-y="0" data-symbol="2"/><rect stroke="grey" stroke-width="1" x="50.0" y="60.0" width="20" height="20" fill="green" data-x="2" data-y="0" data-symbol="3"/><rect stroke="grey" stroke-width="1" x="10.0" y="80.0" width="20" height="20" fill="yellow" data-x="0" data-y="1" data-symbol="4"/><rect stroke="grey" stroke-width="1" x="30.0" y="80.0" width="20" height="20" fill="darkGrey" data-x="1" data-y="1" data-symbol="5"/><rect stroke="grey" stroke-width="1" x="50.0" y="80.0" width="20" height="20" fill="magenta" data-x="2" data-y="1" data-symbol="6"/><rect stroke="grey" stroke-width="1" x="10.0" y="100.0" width="20" height="20" fill="orange" data-x="0" data-y="2" data-symbol="7"/><rect stroke="grey" stroke-width="1" x="30.0" y="100.0" width="20" height="20" fill="cyan" data-x="1" data-y="2" data-symbol="8"/><rect stroke="grey" stroke-width="1" x="50.0" y="100.0" width="20" height="20" fill="brown" data-x="2" data-y="2" data-symbol="9"/><desc>[[1, 2, 3], [4, 5, 6], [7, 8, 9]]</desc><title content="Grid"/></svg><line stroke="grey" stroke-width="3" x1="100.0" y1="90.0" x2="120.0" y2="90.0"/><line stroke="grey" stroke-width="3" x1="121.0" y1="91.0" x2="114.0" y2="84.0"/><line stroke="grey" stroke-width="3" x1="121.0" y1="89.0" x2="114.0" y2="96.0"/><svg xmlns="http://www.w3.org/2000/svg" overflow="visible"><rect stroke="grey" stroke-width="1" x="140.0" y="60.0" width="20" height="20" fill="black" data-x="0" data-y="0" data-symbol="0"/><rect stroke="grey" stroke-width="1" x="160.0" y="60.0" width="20" height="20" fill="red" data-x="1" data-y="0" data-symbol="2"/><rect stroke="grey" stroke-width="1" x="180.0" y="60.0" width="20" height="20" fill="green" data-x="2" data-y="0" data-symbol="3"/><rect stroke="grey" stroke-width="1" x="140.0" y="80.0" width="20" height="20" fill="yellow" data-x="0" data-y="1" data-symbol="4"/><rect stroke="grey" stroke-width="1" x="160.0" y="80.0" width="20" height="20" fill="darkGrey" data-x="1" data-y="1" data-symbol="5"/><rect stroke="grey" stroke-width="1" x="180.0" y="80.0" width="20" height="20" fill="magenta" data-x="2" data-y="1" data-symbol="6"/><rect stroke="grey" stroke-width="1" x="140.0" y="100.0" width="20" height="20" fill="orange" data-x="0" data-y="2" data-symbol="7"/><rect stroke="grey" stroke-width="1" x="160.0" y="100.0" width="20" height="20" fill="cyan" data-x="1" data-y="2" data-symbol="8"/><rect stroke="grey" stroke-width="1" x="180.0" y="100.0" width="20" height="20" fill="brown" data-x="2" data-y="2" data-symbol="9"/><desc>[[0, 2, 3], [4, 5, 6], [7, 8, 9]]</desc><title content="Grid"/></svg><desc>{"input": [[1, 2, 3], [4, 5, 6], [7, 8, 9]], "output": [[0, 2, 3], [4, 5, 6], [7, 8, 9]]}</desc><title content="Pair"/></svg><svg xmlns="http://www.w3.org/2000/svg" overflow="visible"><svg xmlns="http://www.w3.org/2000/svg" overflow="visible"><rect stroke="grey" stroke-width="1" x="10.0" y="140.0" width="20" height="20" fill="blue" data-x="0" data-y="0" data-symbol="1"/><rect stroke="grey" stroke-width="1" x="30.0" y="140.0" width="20" height="20" fill="red" data-x="1" data-y="0" data-symbol="2"/><rect stroke="grey" stroke-width="1" x="50.0" y="140.0" width="20" height="20" fill="green" data-x="2" data-y="0" data-symbol="3"/><rect stroke="grey" stroke-width="1" x="10.0" y="160.0" width="20" height="20" fill="yellow" data-x="0" data-y="1" data-symbol="4"/><rect stroke="grey" stroke-width="1" x="30.0" y="160.0" width="20" height="20" fill="darkGrey" data-x="1" data-y="1" data-symbol="5"/><rect stroke="grey" stroke-width="1" x="50.0" y="160.0" width="20" height="20" fill="magenta" data-x="2" data-y="1" data-symbol="6"/><rect stroke="grey" stroke-width="1" x="10.0" y="180.0" width="20" height="20" fill="orange" data-x="0" data-y="2" data-symbol="7"/><rect stroke="grey" stroke-width="1" x="30.0" y="180.0" width="20" height="20" fill="cyan" data-x="1" data-y="2" data-symbol="8"/><rect stroke="grey" stroke-width="1" x="50.0" y="180.0" width="20" height="20" fill="brown" data-x="2" data-y="2" data-symbol="9"/><desc>[[1, 2, 3], [4, 5, 6], [7, 8, 9]]</desc><title content="Grid"/></svg><line stroke="grey" stroke-width="3" x1="100.0" y1="170.0" x2="120.0" y2="170.0"/><line stroke="grey" stroke-width="3" x1="121.0" y1="171.0" x2="114.0" y2="164.0"/><line stroke="grey" stroke-width="3" x1="121.0" y1="169.0" x2="114.0" y2="176.0"/><svg xmlns="http://www.w3.org/2000/svg" overflow="visible"><rect stroke="grey" stroke-width="1" x="140.0" y="140.0" width="20" height="20" fill="blue" data-x="0" data-y="0" data-symbol="1"/><rect stroke="grey" stroke-width="1" x="160.0" y="140.0" width="20" height="20" fill="red" data-x="1" data-y="0" data-symbol="2"/><rect stroke="grey" stroke-width="1" x="180.0" y="140.0" width="20" height="20" fill="green" data-x="2" data-y="0" data-symbol="3"/><rect stroke="grey" stroke-width="1" x="140.0" y="160.0" width="20" height="20" fill="yellow" data-x="0" data-y="1" data-symbol="4"/><rect stroke="grey" stroke-width="1" x="160.0" y="160.0" width="20" height="20" fill="darkGrey" data-x="1" data-y="1" data-symbol="5"/><rect stroke="grey" stroke-width="1" x="180.0" y="160.0" width="20" height="20" fill="magenta" data-x="2" data-y="1" data-symbol="6"/><rect stroke="grey" stroke-width="1" x="140.0" y="180.0" width="20" height="20" fill="orange" data-x="0" data-y="2" data-symbol="7"/><rect stroke="grey" stroke-width="1" x="160.0" y="180.0" width="20" height="20" fill="cyan" data-x="1" data-y="2" data-symbol="8"/><rect stroke="grey" stroke-width="1" x="180.0" y="180.0" width="20" height="20" fill="brown" data-x="2" data-y="2" data-symbol="9"/><desc>[[1, 2, 3], [4, 5, 6], [7, 8, 9]]</desc><title content="Grid"/></svg><desc>{"input": [[1, 2, 3], [4, 5, 6], [7, 8, 9]], "output": [[1, 2, 3], [4, 5, 6], [7, 8, 9]]}</desc><title content="Pair"/></svg><line stroke="grey" stroke-dasharray="5 5" stroke-width="3" x1="0" y1="220" x2="200" y2="220"/><svg xmlns="http://www.w3.org/2000/svg" overflow="visible"><svg xmlns="http://www.w3.org/2000/svg" overflow="visible"><rect stroke="grey" stroke-width="1" x="0.0" y="250.0" width="20" height="20" fill="black" data-x="0" data-y="0" data-symbol="0"/><rect stroke="grey" stroke-width="1" x="20.0" y="250.0" width="20" height="20" fill="blue" data-x="1" data-y="0" data-symbol="1"/><rect stroke="grey" stroke-width="1" x="40.0" y="250.0" width="20" height="20" fill="red" data-x="2" data-y="0" data-symbol="2"/><rect stroke="grey" stroke-width="1" x="60.0" y="250.0" width="20" height="20" fill="green" data-x="3" data-y="0" data-symbol="3"/><rect stroke="grey" stroke-width="1" x="0.0" y="270.0" width="20" height="20" fill="yellow" data-x="0" data-y="1" data-symbol="4"/><rect stroke="grey" stroke-width="1" x="20.0" y="270.0" width="20" height="20" fill="darkGrey" data-x="1" data-y="1" data-symbol="5"/><rect stroke="grey" stroke-width="1" x="40.0" y="270.0" width="20" height="20" fill="magenta" data-x="2" data-y="1" data-symbol="6"/><rect stroke="grey" stroke-width="1" x="60.0" y="270.0" width="20" height="20" fill="orange" data-x="3" data-y="1" data-symbol="7"/><desc>[[0, 1, 2, 3], [4, 5, 6, 7]]</desc><title content="Grid"/></svg><line stroke="grey" stroke-width="3" x1="100.0" y1="270.0" x2="120.0" y2="270.0"/><line stroke="grey" stroke-width="3" x1="121.0" y1="271.0" x2="114.0" y2="264.0"/><line stroke="grey" stroke-width="3" x1="121.0" y1="269.0" x2="114.0" y2="276.0"/><svg xmlns="http://www.w3.org/2000/svg" overflow="visible"><rect stroke="grey" stroke-width="1" x="160.0" y="240" width="20" height="20" fill="blue" data-x="0" data-y="0" data-symbol="1"/><rect stroke="grey" stroke-width="1" x="160.0" y="260" width="20" height="20" fill="red" data-x="0" data-y="1" data-symbol="2"/><rect stroke="grey" stroke-width="1" x="160.0" y="280" width="20" height="20" fill="green" data-x="0" data-y="2" data-symbol="3"/><desc>[[1], [2], [3]]</desc><title content="Grid"/></svg><desc>{"input": [[0, 1, 2, 3], [4, 5, 6, 7]], "output": [[1], [2], [3]]}</desc><title content="Pair"/></svg><desc>{"train": [{"input": [[1, 2, 3], [4, 5, 6], [7, 8, 9]], "output": [[0, 2, 3], [4, 5, 6], [7, 8, 9]]}, {"input": [[1, 2, 3], [4, 5, 6], [7, 8, 9]], "output": [[1, 2, 3], [4, 5, 6], [7, 8, 9]]}], "test": [{"input": [[0, 1, 2, 3], [4, 5, 6, 7]], "output": [[1], [2], [3]]}]}</desc><title content="Task - 38100990"/></svg>